<svg width="850" height="850" viewBox="0 0 850 850" fill="none" xmlns="http://www.w3.org/2000/svg">
<g clip-path="url(#clip0_5_7)">
<path d="M311.2 693.6C298.933 693.6 289.333 690.133 282.4 683.2C275.467 676.267 272 666.4 272 653.6V164C272 151.2 275.467 141.333 282.4 134.4C289.333 127.467 299.2 124 312 124H599.2C609.867 124 617.867 126.667 623.2 132C628.533 136.8 631.2 144 631.2 153.6C631.2 163.733 628.533 171.467 623.2 176.8C617.867 182.133 609.867 184.8 599.2 184.8H346.4V373.6H583.2C593.333 373.6 601.067 376.267 606.4 381.6C611.733 386.933 614.4 394.133 614.4 403.2C614.4 413.333 611.733 421.067 606.4 426.4C601.067 431.733 593.333 434.4 583.2 434.4H346.4V653.6C346.4 680.267 334.667 693.6 311.2 693.6Z" fill="#CF599A"/>
</g>
<defs>
<clipPath id="clip0_5_7">
<rect width="850" height="850" fill="white"/>
</clipPath>
</defs>
</svg>
